<?xml version="1.0" encoding="utf-8"?>
<!-- Generator: Adobe Illustrator 22.1.0, SVG Export Plug-In . SVG Version: 6.00 Build 0)  -->
<svg version="1.1" id="Warstwa_1" xmlns="http://www.w3.org/2000/svg" xmlns:xlink="http://www.w3.org/1999/xlink" x="0px" y="0px"
	 viewBox="0 0 707.1 200" style="enable-background:new 0 0 707.1 200;" xml:space="preserve">
<style type="text/css">
	.st0{fill:#FB5551;}
	.st1{fill:#091232;}
</style>
<path class="st0" d="M329.3,151.6c-0.5-0.5-1-0.9-1.6-1.1c-0.6-0.3-1.3-0.5-2-0.6l0,0c1.1-0.3,2.1-0.9,2.8-1.7
	c0.7-0.9,1.1-2,1.1-3.1c0-0.9-0.2-1.8-0.6-2.6c-0.4-0.7-0.9-1.3-1.6-1.7c-0.7-0.5-1.5-0.8-2.3-0.9c-0.9-0.2-1.7-0.3-2.6-0.3h-7.7
	v22.4h7.4c1.1,0,2.2-0.1,3.3-0.4c0.9-0.2,1.8-0.6,2.6-1.2c1.6-1.1,2.5-2.9,2.5-4.8c0-0.7-0.1-1.4-0.4-2.1
	C330,152.7,329.7,152.1,329.3,151.6z M318,142h3.6c1.2-0.1,2.5,0.2,3.6,0.8c0.9,0.5,1.5,1.6,1.3,2.6c0,0.5-0.1,1.1-0.3,1.6
	c-0.2,0.4-0.6,0.8-0.9,1.1c-0.4,0.3-0.9,0.5-1.4,0.6c-0.6,0.1-1.1,0.2-1.7,0.2H318L318,142z M327,157.1c-0.3,0.5-0.8,0.9-1.3,1.2
	c-0.6,0.3-1.2,0.5-1.8,0.6c-0.7,0.1-1.3,0.2-2,0.2H318v-7.6h4.1c1.4-0.1,2.7,0.2,3.9,0.9c0.9,0.6,1.5,1.7,1.4,2.9
	C327.5,155.9,327.3,156.5,327,157.1z M334.4,161.7h3v-23.9h-3V161.7z M354.8,148.6c-0.8-0.7-1.7-1.3-2.6-1.6c-2.1-0.8-4.3-0.8-6.4,0
	c-1.9,0.7-3.4,2.2-4.2,4.1c-0.4,1-0.6,2.1-0.6,3.2c0,1.1,0.2,2.2,0.6,3.2c0.4,1,0.9,1.9,1.7,2.6c0.8,0.7,1.7,1.3,2.6,1.6
	c2.1,0.8,4.3,0.8,6.4,0c1-0.4,1.9-0.9,2.6-1.6c0.7-0.7,1.3-1.6,1.7-2.6c0.4-1,0.6-2.1,0.6-3.2c0-1.1-0.2-2.2-0.6-3.2
	C356.2,150.1,355.5,149.2,354.8,148.6L354.8,148.6z M353.7,156.3c-0.2,0.6-0.5,1.2-1,1.7c-0.4,0.5-1,0.9-1.6,1.2
	c-1.4,0.6-2.9,0.6-4.3,0c-0.6-0.3-1.1-0.7-1.6-1.2c-0.4-0.5-0.8-1.1-1-1.7c-0.4-1.3-0.4-2.8,0-4.1c0.2-0.6,0.5-1.2,1-1.7
	c0.4-0.5,1-0.9,1.6-1.2c1.4-0.6,2.9-0.6,4.3,0c0.6,0.3,1.1,0.7,1.6,1.2c0.4,0.5,0.8,1.1,1,1.7c0.2,0.7,0.3,1.4,0.3,2.1
	C354,154.9,353.9,155.6,353.7,156.3L353.7,156.3z M369.7,159.2c-2,0.9-4.3,0.5-5.7-1.2c-0.4-0.5-0.8-1.1-1-1.7
	c-0.4-1.3-0.4-2.8,0-4.1c0.2-0.6,0.5-1.2,1-1.7c0.9-1.1,2.2-1.7,3.6-1.6c0.7,0,1.4,0.2,2,0.5c0.6,0.3,1.1,0.7,1.4,1.2l2.2-1.7
	c-0.6-0.8-1.5-1.5-2.5-1.8c-1-0.4-2.1-0.6-3.1-0.6c-1.1,0-2.2,0.2-3.2,0.6c-1,0.3-1.9,0.9-2.6,1.6c-0.7,0.7-1.3,1.6-1.7,2.5
	c-0.8,2.1-0.8,4.4,0,6.5c0.4,0.9,1,1.8,1.7,2.5c0.8,0.7,1.7,1.3,2.6,1.6c1,0.4,2.1,0.6,3.2,0.6c1.1,0,2.2-0.2,3.2-0.6
	c0.9-0.4,1.7-1,2.4-1.7l-2-1.8C370.8,158.5,370.3,158.9,369.7,159.2L369.7,159.2z M388.9,146.7h-4l-6.3,6.5l0,0v-15.4h-3v23.9h3
	v-7.9l0,0l6.8,7.9h4.1l-7.6-8.2L388.9,146.7z M400.7,159.2c-1.3,0.6-2.8,0.6-4.2,0c-0.6-0.3-1.1-0.7-1.6-1.2c-0.4-0.5-0.8-1.1-1-1.7
	c-0.4-1.3-0.4-2.8,0-4.1c0.2-0.6,0.5-1.2,1-1.7c0.9-1.1,2.2-1.7,3.6-1.6c0.7,0,1.4,0.2,2,0.5c0.6,0.3,1.1,0.7,1.4,1.2l2.2-1.7
	c-0.6-0.8-1.5-1.5-2.5-1.8c-1-0.4-2.1-0.6-3.1-0.6c-1.1,0-2.2,0.2-3.2,0.6c-1,0.3-1.9,0.9-2.6,1.6c-0.7,0.7-1.3,1.6-1.7,2.5
	c-0.8,2.1-0.8,4.4,0,6.5c0.4,0.9,1,1.8,1.7,2.5c0.8,0.7,1.7,1.3,2.6,1.6c1,0.4,2.1,0.6,3.2,0.6c1.1,0,2.2-0.2,3.2-0.6
	c0.9-0.4,1.7-1,2.4-1.7l-2-1.8C401.8,158.5,401.3,158.9,400.7,159.2L400.7,159.2z M418.6,148.1c-0.5-0.6-1.1-1-1.7-1.3
	c-0.8-0.3-1.6-0.5-2.5-0.5c-1,0-2,0.3-2.9,0.8c-0.8,0.4-1.4,1.1-1.8,1.9l0,0v-11.2h-3v23.9h3v-7.9c-0.1-1.3,0.3-2.6,1.1-3.6
	c0.7-0.9,1.8-1.4,2.9-1.3c0.6,0,1.2,0.1,1.7,0.4c0.4,0.2,0.8,0.6,1,1c0.3,0.4,0.4,0.9,0.5,1.4c0.1,0.6,0.1,1.2,0.1,1.7v8.3h3v-9.3
	c0-0.8-0.1-1.6-0.3-2.4C419.4,149.4,419.1,148.7,418.6,148.1L418.6,148.1z M436.5,158.7v-6.6c0-0.8-0.1-1.6-0.4-2.3
	c-0.2-0.7-0.6-1.3-1.1-1.9c-0.5-0.6-1.2-1-1.9-1.2c-0.9-0.3-1.8-0.5-2.8-0.4c-1.2,0-2.3,0.2-3.4,0.6c-1,0.4-1.9,0.9-2.6,1.6l1.6,1.9
	c0.5-0.5,1.2-0.9,1.9-1.2c0.8-0.3,1.6-0.5,2.4-0.5c0.9,0,1.9,0.3,2.6,0.8c0.7,0.6,1.1,1.5,1,2.5v0.4c-1.3,0-2.6,0-3.8,0.2
	c-1.1,0.1-2.3,0.3-3.3,0.7c-0.9,0.3-1.7,0.8-2.4,1.5c-0.6,0.7-1,1.7-0.9,2.6c0,0.8,0.2,1.5,0.5,2.2c0.3,0.6,0.8,1.1,1.3,1.4
	c0.5,0.4,1.1,0.6,1.8,0.8c0.6,0.2,1.2,0.2,1.8,0.2c1,0,2-0.2,2.9-0.7c0.8-0.4,1.5-1.1,2.1-1.9l0,0c0,0.7,0.1,1.5,0.3,2.2h2.6
	c-0.1-0.4-0.2-0.9-0.2-1.4C436.5,159.8,436.5,159.2,436.5,158.7L436.5,158.7z M433.6,155.3c0,1.2-0.4,2.3-1.1,3.1
	c-0.8,0.9-2,1.3-3.2,1.2c-0.4,0-0.7,0-1.1,0c-0.3-0.1-0.7-0.2-1-0.4c-0.3-0.2-0.5-0.4-0.7-0.7c-0.2-0.3-0.3-0.7-0.3-1.1
	c0-0.6,0.2-1.1,0.6-1.5c0.5-0.4,1-0.7,1.6-0.8c0.7-0.2,1.4-0.3,2.2-0.4c0.8,0,1.6,0,2.3,0h0.7v0.8L433.6,155.3z M440.8,161.6h3
	v-14.8h-3L440.8,161.6z M442.3,139.3c-0.5,0-1,0.2-1.4,0.6c-0.4,0.4-0.6,0.9-0.6,1.4c0,0.5,0.2,1,0.6,1.3c0.4,0.4,0.9,0.6,1.4,0.6
	c0.5,0,1-0.2,1.4-0.5c0.4-0.3,0.6-0.8,0.6-1.4c0-0.5-0.2-1-0.6-1.4C443.3,139.5,442.8,139.4,442.3,139.3L442.3,139.3z M460.4,148.1
	c-0.5-0.6-1.1-1-1.7-1.3c-0.8-0.3-1.6-0.5-2.5-0.5c-1.5,0-3,0.6-4.1,1.8c-0.3,0.3-0.6,0.7-0.8,1.1l0,0c0-0.3,0-0.7,0-1.2
	c0-0.5,0-0.9,0-1.3h-2.8c0,0.5,0,1.1,0,1.7c0,0.6,0,1.2,0,1.6v11.7h3v-7.9c-0.1-1.3,0.3-2.6,1.1-3.6c0.7-0.9,1.8-1.4,2.9-1.3
	c0.6,0,1.2,0.1,1.7,0.4c0.4,0.2,0.8,0.6,1.1,1c0.3,0.4,0.4,0.9,0.5,1.4c0.1,0.6,0.1,1.2,0.1,1.7v8.3h2.7v-9.3c0-0.8-0.1-1.6-0.3-2.4
	C461.1,149.3,460.8,148.7,460.4,148.1L460.4,148.1z M487.8,139.3h-17.5v2.6h7.1v19.6h3.1v-19.6h7.2v-2.6H487.8z M499,148.3
	c-0.6-0.7-1.4-1.2-2.3-1.6c-1.9-0.7-4.1-0.7-6.1,0c-0.9,0.4-1.8,0.9-2.5,1.6c-0.7,0.8-1.3,1.6-1.6,2.6c-0.4,1-0.6,2.1-0.6,3.2
	c0,1.1,0.2,2.2,0.6,3.2c0.7,1.9,2.2,3.4,4.1,4.1c2.2,0.8,4.6,0.7,6.8-0.2c1.1-0.5,2.1-1.3,2.8-2.3l-2.1-1.7c-0.4,0.7-1,1.2-1.7,1.6
	c-0.8,0.5-1.7,0.7-2.6,0.7c-1.2,0-2.4-0.5-3.4-1.3c-0.4-0.4-0.8-0.9-1.1-1.4c-0.3-0.6-0.4-1.2-0.4-1.8h11.9c0-0.2,0-0.3,0-0.5v-0.5
	c0-1.1-0.2-2.2-0.5-3.2C500.1,149.9,499.6,149.1,499,148.3L499,148.3z M489,152.8c0-0.6,0.2-1.1,0.4-1.7c0.3-0.5,0.6-1,1-1.3
	c0.4-0.4,0.9-0.7,1.4-0.9c0.6-0.2,1.2-0.3,1.8-0.3c0.6,0,1.2,0.1,1.8,0.3c0.5,0.2,0.9,0.5,1.3,0.9c0.4,0.4,0.6,0.8,0.8,1.3
	c0.2,0.5,0.3,1.1,0.3,1.7H489z M516.6,158.6v-6.5c0-0.8-0.1-1.6-0.4-2.3c-0.2-0.7-0.6-1.3-1.1-1.9c-0.5-0.6-1.2-1-1.9-1.2
	c-0.9-0.3-1.8-0.5-2.8-0.4c-1.2,0-2.3,0.2-3.4,0.6c-1,0.4-1.9,0.9-2.6,1.6l1.6,1.9c0.5-0.5,1.2-0.9,1.9-1.2c0.8-0.3,1.6-0.5,2.4-0.5
	c0.9,0,1.9,0.3,2.6,0.8c0.7,0.6,1.1,1.5,1,2.5v0.4c-1.3,0-2.6,0-3.8,0.2c-1.1,0.1-2.3,0.3-3.3,0.7c-0.9,0.3-1.7,0.8-2.4,1.5
	c-0.6,0.7-1,1.7-0.9,2.6c0,0.8,0.2,1.5,0.5,2.2c0.3,0.6,0.8,1,1.3,1.4c0.5,0.4,1.1,0.6,1.8,0.8c0.6,0.2,1.2,0.2,1.8,0.2
	c1,0,2-0.2,2.9-0.7c0.8-0.4,1.5-1.1,2.1-1.9l0,0c0,0.7,0.1,1.5,0.3,2.2h2.6c-0.1-0.4-0.2-0.9-0.2-1.4c0.1-0.4,0-0.9,0-1.4
	L516.6,158.6z M513.7,155.3c0,1.2-0.4,2.3-1.1,3.1c-0.8,0.9-2,1.3-3.2,1.2c-0.4,0-0.7,0-1.1,0c-0.3-0.1-0.7-0.2-1-0.4
	c-0.3-0.2-0.5-0.4-0.7-0.7c-0.2-0.3-0.3-0.7-0.3-1.1c0-0.6,0.2-1.1,0.6-1.5c0.5-0.4,1-0.7,1.6-0.8c0.7-0.2,1.4-0.3,2.2-0.4
	c0.8,0,1.6,0,2.3,0h0.7v0.8V155.3z M543.6,150c-0.2-0.7-0.6-1.4-1-1.9c-0.5-0.6-1.1-1-1.7-1.3c-0.8-0.3-1.6-0.5-2.5-0.5
	c-1,0-2.1,0.3-3,0.8c-0.9,0.5-1.6,1.3-2.1,2.2c-0.4-1-1-1.8-1.9-2.3c-0.8-0.4-1.7-0.7-2.6-0.7c-1,0-2.1,0.3-2.9,0.8
	c-0.8,0.5-1.4,1.2-1.8,2l0,0c0-0.3,0-0.7,0-1.2c0-0.5,0-0.9,0-1.3h-2.8c0,0.5,0,1.1,0,1.7c0,0.6,0,1.2,0,1.6v11.7h3v-7.9
	c-0.1-1.3,0.3-2.5,1.1-3.6c0.6-0.8,1.6-1.3,2.6-1.3c0.5,0,1,0.1,1.5,0.3c0.4,0.2,0.7,0.5,1,0.8c0.3,0.4,0.5,0.8,0.6,1.2
	c0.1,0.5,0.2,1.1,0.2,1.6v8.9h3v-8.1c0-0.6,0.1-1.2,0.2-1.7c0.1-0.5,0.4-1.1,0.7-1.5c0.3-0.5,0.7-0.8,1.2-1.1
	c0.5-0.3,1.1-0.4,1.7-0.4c0.6,0,1.1,0.1,1.6,0.4c0.4,0.2,0.8,0.6,1,1c0.3,0.4,0.5,0.9,0.6,1.4c0.1,0.6,0.2,1.2,0.2,1.7v8.3h3v-9.3
	C543.9,151.6,543.8,150.8,543.6,150L543.6,150z M256.4,116.9l-98.7-66.6c-4.2-2.8-9.6-2.8-13.8,0l-98.7,66.6c-4,2.7-5,8-2.4,12
	c0.6,0.9,1.4,1.7,2.4,2.4l98.7,66.6c4.2,2.8,9.6,2.8,13.8,0l98.7-66.7c4-2.7,5-8,2.4-12C258.1,118.3,257.3,117.5,256.4,116.9
	L256.4,116.9z M252,124.8l-98.7,66.6c-1.5,1-3.5,1-5,0l-98.7-66.6c-0.2-0.1-0.3-0.4-0.3-0.7c0-0.3,0.1-0.5,0.3-0.7l98.7-66.7
	c1.5-1,3.5-1,5,0l98.7,66.6c0.4,0.3,0.5,0.8,0.2,1.1C252.1,124.6,252.1,124.7,252,124.8L252,124.8z"/>
<path class="st1" d="M352.6,47.6c-4-2.3-8.5-3.5-13.2-3.4c-4.5-0.1-9,1.1-12.9,3.4c-3.8,2.2-7,5.4-9.2,9.3c-2.3,4-3.5,8.5-3.4,13.2
	v42.2c-0.1,1.3,0.4,2.5,1.3,3.4c1.8,1.9,4.8,1.9,6.7,0.1c1-0.9,1.5-2.2,1.4-3.6V89.4l2.6,2.1c6.8,5.6,16.2,6.9,24.3,3.3
	c13.2-5.8,14.7-20,14.7-24.8c0.1-4.6-1.1-9.1-3.3-13.2C359.5,53,356.3,49.8,352.6,47.6z M356,70.5c0,3.1-0.7,6.2-2.2,9
	c-1.4,2.6-3.4,4.8-6,6.3c-5.2,3.1-11.7,3.1-16.9,0c-2.5-1.5-4.6-3.7-5.9-6.3c-1.4-3-2-6.2-1.9-9.5c0-3.1,0.7-6.2,2.1-8.9
	c4.3-8,14.2-11,22.2-6.7c0.2,0.1,0.4,0.2,0.5,0.3c2.5,1.5,4.5,3.7,5.9,6.3c1.5,2.7,2.2,5.8,2.2,8.9L356,70.5z M409.5,69.1
	c-6.3-3.2-13.6-3.7-20.2-1.2c-2.6,1-5,2.6-7.1,4.6V49.8c-0.1-2.7-2.3-4.8-4.9-4.7c-1.2,0-2.3,0.5-3.2,1.3c-0.9,0.9-1.4,2.1-1.3,3.4
	v62.9c0,2.7,2.2,4.8,4.9,4.7c1.2,0,2.4-0.5,3.3-1.3c0.9-0.9,1.3-2.1,1.3-3.4v-26c0-2.1,0.6-4.2,1.8-6c1.3-1.8,3-3.3,5-4.3
	c2.2-1.1,4.6-1.6,7.1-1.6c7.5-0.6,14.2,4.9,14.8,12.5c0.1,0.9,0.1,1.8,0,2.7v22.7c-0.2,2.6,1.8,4.9,4.4,5.1c2.6,0.2,4.9-1.8,5.1-4.4
	c0-0.2,0-0.5,0-0.7V90c0.1-4.5-0.9-8.9-2.9-12.8C415.7,73.7,412.9,70.9,409.5,69.1L409.5,69.1z M660,71.7c-3.4-3.6-8.2-5.5-13.2-5.3
	c-3.2,0-6.4,0.6-9.3,1.9c-2.7,1.2-5.1,3-6.9,5.3c-1.6-2.3-3.7-4.2-6.2-5.4c-2.6-1.3-5.6-2-8.5-1.9c-2.5,0-4.9,0.4-7.2,1.3
	c-2.2,0.8-4.1,2.1-5.8,3.7c0-1.2-0.5-2.4-1.4-3.3c-0.9-0.8-2.1-1.3-3.3-1.2c-1.3,0-2.5,0.4-3.4,1.3c-0.9,0.9-1.4,2.1-1.3,3.4v41
	c0,2.7,2.2,4.8,4.9,4.7c1.2,0,2.4-0.5,3.3-1.3c0.9-0.9,1.3-2.1,1.3-3.4v-26c0-3.2,1.2-6.2,3.4-8.5c2-2.2,4.9-3.4,7.9-3.3
	c2.8-0.1,5.6,0.9,7.6,2.9c2.1,2.4,3.1,5.5,2.8,8.6v26.3c0,2.7,2.2,4.8,4.9,4.7c1.2,0,2.4-0.5,3.3-1.3c0.9-0.9,1.3-2.1,1.3-3.4v-26
	c-0.1-3.1,1-6.2,3.1-8.5c2-2.2,4.9-3.4,7.9-3.3c2.8-0.1,5.6,0.9,7.6,2.9c2.1,2.4,3.1,5.5,2.9,8.6v26.3c0,2.7,2.2,4.8,4.9,4.7
	c1.2,0,2.4-0.5,3.3-1.3c0.9-0.9,1.3-2.1,1.3-3.4V86.3c0.3-5.4-1.4-10.7-4.9-14.8L660,71.7z M574.8,69.6c-4-2.2-8.6-3.4-13.2-3.3
	c-4.6-0.1-9.1,1.1-13.2,3.3c-3.8,2.1-7,5.3-9.1,9.1c-4.3,8.3-4.3,18.2,0,26.6c2.1,3.8,5.3,7,9.1,9.1c8.3,4.4,18.2,4.4,26.5,0
	c3.8-2.1,7-5.3,9.1-9.1c4.4-8.3,4.4-18.3,0-26.6C581.8,74.9,578.6,71.8,574.8,69.6z M576,101.1c-1.3,2.6-3.4,4.7-5.8,6.2
	c-5.3,3-11.7,3-17,0c-2.5-1.5-4.5-3.6-5.9-6.2c-1.5-2.8-2.2-5.8-2.1-8.9c-0.1-3.1,0.7-6.2,2.1-9c1.3-2.6,3.4-4.7,5.9-6.2
	c5.3-3,11.7-3,17,0c2.5,1.5,4.5,3.6,5.8,6.2c1.4,2.8,2.1,5.9,2.1,9C578.1,95.2,577.4,98.3,576,101.1L576,101.1z M518.6,69
	c-6.2-3.2-13.6-3.6-20.1-1.1c-2.6,1-5,2.6-7.1,4.6v-1c0.1-2.5-1.7-4.6-4.2-4.7c-0.2,0-0.4,0-0.5,0c-1.3,0-2.5,0.4-3.4,1.3
	c-0.9,0.9-1.4,2.1-1.3,3.4v41.2c0,2.7,2.2,4.8,4.9,4.7c1.2,0,2.4-0.5,3.3-1.3c0.9-0.9,1.3-2.1,1.3-3.4v-26c0-2.1,0.6-4.2,1.8-6
	c1.3-1.8,3-3.3,5-4.3c2.2-1.1,4.6-1.6,7.1-1.6c7.5-0.6,14.2,4.9,14.8,12.5c0.1,0.9,0.1,1.8,0,2.7v22.7c-0.2,2.6,1.8,4.9,4.4,5.1
	c2.6,0.2,4.9-1.8,5.1-4.4c0-0.2,0-0.5,0-0.7V90c0.1-4.5-0.9-8.9-2.9-12.8C524.8,73.7,522,70.9,518.6,69z M464.4,69.5
	c-3.7-2.2-8-3.3-12.3-3.2c-4.5-0.1-9,1.1-12.9,3.3c-3.8,2.2-6.8,5.3-8.9,9.2c-2.2,4.1-3.3,8.7-3.2,13.3c-0.1,4.6,1.1,9.2,3.4,13.2
	c2.2,3.9,5.5,7,9.4,9.1c7,3.7,15.1,4.3,22.6,1.7c2.8-0.9,5.5-2.3,7.9-4.1c0.9-0.6,1.5-1.7,1.5-2.8c0-1.2-0.7-2.4-1.7-3.1
	c-0.8-0.6-1.8-1-2.8-0.9c-1.1,0-2.2,0.3-3.1,1c-1.5,1.1-3.2,2-5,2.6c-1.9,0.7-3.8,1-5.8,1c-4.3,0.1-8.5-1.3-11.9-4
	c-3.2-2.6-5.3-6.4-5.9-10.5h35.2c1.1,0,2.2-0.4,3.1-1.2c0.8-0.8,1.2-1.8,1.2-2.9c0.1-4.5-0.9-8.9-2.8-13
	C470.6,74.6,467.9,71.6,464.4,69.5z M435.7,87.9c0.6-3.8,2.4-7.3,5.3-9.9c3.1-2.6,7-3.9,11-3.7c3.7-0.2,7.2,1.2,9.9,3.7
	c2.6,2.7,4.3,6.2,4.6,9.9H435.7z M257,68.5L158.3,2.1c-4.2-2.8-9.7-2.8-13.8,0L45.7,68.6c-4,2.6-5,8-2.4,11.9
	c0.6,0.9,1.4,1.8,2.4,2.4l98.8,66.4c0.9,0.6,1.9,1.1,3,1.5v44.7c0,2.2,1.8,3.9,3.9,3.9c2.2,0,3.9-1.8,3.9-3.9v-44.7
	c1.1-0.4,2.1-0.9,3-1.5L253,85.6v38c0,2.2,1.8,3.9,3.9,3.9s3.9-1.8,3.9-3.9V75.8C260.9,72.9,259.5,70.2,257,68.5L257,68.5z
	 M252.7,76.4l-98.8,66.4c-0.7,0.5-1.6,0.8-2.5,0.8l0,0c-0.9,0-1.7-0.3-2.5-0.8l0,0L50.1,76.4c-0.4-0.2-0.5-0.7-0.2-1.1
	c0.1-0.1,0.1-0.2,0.2-0.2l98.8-66.4c1.5-1,3.5-1,5,0l98.8,66.4c0.4,0.2,0.5,0.7,0.2,1.1C252.8,76.2,252.7,76.3,252.7,76.4
	L252.7,76.4z"/>
</svg>
