<?xml version="1.0" encoding="utf-8"?>
<!-- Generator: Adobe Illustrator 22.1.0, SVG Export Plug-In . SVG Version: 6.00 Build 0)  -->
<svg version="1.1" id="Warstwa_1" xmlns="http://www.w3.org/2000/svg" xmlns:xlink="http://www.w3.org/1999/xlink" x="0px" y="0px"
	 viewBox="0 0 173.2 200" style="enable-background:new 0 0 173.2 200;" xml:space="preserve">
<style type="text/css">
	.st0{fill:#FB5551;}
	.st1{fill:#091232;}
</style>
<path class="st0" d="M226.7,141.8c-0.4-0.4-0.8-0.7-1.2-0.9c-0.5-0.2-1-0.4-1.6-0.4l0,0c0.9-0.2,1.7-0.7,2.2-1.4
	c0.6-0.7,0.9-1.6,0.9-2.5c0-0.7-0.1-1.4-0.5-2.1c-0.3-0.6-0.7-1-1.3-1.4c-0.5-0.4-1.2-0.6-1.8-0.7c-0.7-0.2-1.4-0.2-2.1-0.2h-6.1
	v17.7h5.8c0.9,0,1.7-0.1,2.6-0.3c0.7-0.2,1.4-0.5,2.1-0.9c1.3-0.8,2-2.3,2-3.8c0-0.6-0.1-1.1-0.3-1.7
	C227.3,142.6,227,142.2,226.7,141.8z M217.8,134.2h2.8c1-0.1,2,0.2,2.8,0.6c0.7,0.4,1.1,1.2,1,2.1c0,0.4-0.1,0.8-0.3,1.2
	c-0.2,0.3-0.4,0.6-0.7,0.9c-0.3,0.2-0.7,0.4-1.1,0.5c-0.4,0.1-0.9,0.2-1.3,0.2h-3.2L217.8,134.2z M224.9,146.1
	c-0.3,0.4-0.6,0.7-1,0.9c-0.4,0.2-0.9,0.4-1.4,0.5c-0.5,0.1-1,0.1-1.6,0.1h-3.1v-6h3.3c1.1-0.1,2.2,0.2,3.1,0.7
	c0.7,0.5,1.2,1.4,1.1,2.3C225.3,145.1,225.2,145.7,224.9,146.1z M230.8,149.8h2.3v-18.9h-2.3V149.8z M246.9,139.4
	c-0.6-0.6-1.3-1-2.1-1.3c-1.6-0.6-3.4-0.6-5,0c-1.5,0.6-2.7,1.7-3.3,3.2c-0.3,0.8-0.5,1.7-0.5,2.5c0,0.9,0.2,1.7,0.5,2.5
	c0.3,0.8,0.7,1.5,1.3,2.1c0.6,0.6,1.3,1,2.1,1.3c1.6,0.6,3.4,0.6,5,0c0.8-0.3,1.5-0.7,2.1-1.3c0.6-0.6,1.1-1.3,1.4-2.1
	c0.3-0.8,0.5-1.7,0.5-2.5c0-0.9-0.1-1.7-0.5-2.5C248,140.6,247.5,139.9,246.9,139.4L246.9,139.4z M246,145.5c-0.2,0.5-0.4,1-0.8,1.4
	c-0.3,0.4-0.8,0.7-1.2,0.9c-1.1,0.5-2.3,0.5-3.4,0c-0.5-0.2-0.9-0.5-1.2-0.9c-0.3-0.4-0.6-0.9-0.8-1.4c-0.4-1.1-0.4-2.2,0-3.2
	c0.2-0.5,0.4-1,0.8-1.4c0.3-0.4,0.8-0.7,1.2-0.9c1.1-0.5,2.3-0.5,3.4,0c0.5,0.2,0.9,0.5,1.2,0.9c0.3,0.4,0.6,0.9,0.8,1.4
	c0.2,0.5,0.3,1.1,0.3,1.6C246.3,144.4,246.2,144.9,246,145.5L246,145.5z M258.7,147.8c-1.5,0.7-3.4,0.4-4.5-0.9
	c-0.3-0.4-0.6-0.9-0.8-1.4c-0.3-1.1-0.3-2.2,0-3.2c0.2-0.5,0.4-1,0.8-1.4c0.7-0.8,1.8-1.3,2.8-1.3c0.6,0,1.1,0.1,1.6,0.4
	c0.5,0.2,0.8,0.5,1.1,1l1.7-1.4c-0.5-0.7-1.2-1.2-2-1.5c-0.8-0.3-1.6-0.5-2.5-0.5c-0.9,0-1.7,0.1-2.5,0.4c-0.8,0.3-1.5,0.7-2.1,1.3
	c-0.6,0.6-1,1.2-1.3,2c-0.6,1.6-0.6,3.5,0,5.1c0.3,0.7,0.8,1.4,1.3,2c0.6,0.6,1.3,1,2.1,1.3c0.8,0.3,1.7,0.5,2.5,0.5
	c0.9,0,1.7-0.1,2.5-0.5c0.7-0.3,1.4-0.8,1.9-1.4l-1.6-1.4C259.5,147.2,259.1,147.5,258.7,147.8L258.7,147.8z M273.9,137.9h-3.1
	l-5,5.1l0,0v-12.2h-2.3v18.9h2.3v-6.2l0,0l5.3,6.2h3.2l-6-6.5L273.9,137.9z M283.1,147.8c-1,0.5-2.2,0.5-3.3,0
	c-0.5-0.2-0.9-0.5-1.2-0.9c-0.3-0.4-0.6-0.9-0.8-1.4c-0.3-1.1-0.3-2.2,0-3.2c0.2-0.5,0.4-1,0.8-1.4c0.7-0.8,1.8-1.3,2.8-1.3
	c0.6,0,1.1,0.1,1.6,0.4c0.5,0.2,0.8,0.5,1.1,1l1.7-1.4c-0.5-0.7-1.2-1.2-2-1.5c-0.8-0.3-1.6-0.5-2.5-0.5c-0.9,0-1.7,0.1-2.5,0.4
	c-0.8,0.3-1.5,0.7-2.1,1.3c-0.6,0.6-1,1.2-1.3,2c-0.6,1.6-0.6,3.5,0,5.1c0.3,0.7,0.8,1.4,1.3,2c0.6,0.6,1.3,1,2.1,1.3
	c0.8,0.3,1.7,0.5,2.5,0.5c0.9,0,1.7-0.1,2.6-0.5c0.7-0.3,1.4-0.8,1.9-1.4l-1.6-1.4C284,147.2,283.6,147.5,283.1,147.8L283.1,147.8z
	 M297.3,139c-0.4-0.4-0.8-0.8-1.4-1c-0.6-0.3-1.3-0.4-2-0.4c-0.8,0-1.6,0.2-2.3,0.6c-0.6,0.3-1.1,0.9-1.5,1.5l0,0v-8.8h-2.3v18.9
	h2.3v-6.2c-0.1-1,0.3-2,0.9-2.8c0.6-0.7,1.4-1.1,2.3-1.1c0.5,0,0.9,0.1,1.3,0.3c0.3,0.2,0.6,0.5,0.8,0.8c0.2,0.4,0.4,0.7,0.4,1.1
	c0.1,0.5,0.1,0.9,0.1,1.4v6.5h2.3v-7.3c0-0.6-0.1-1.3-0.3-1.9C297.9,140,297.7,139.5,297.3,139L297.3,139z M311.4,147.3v-5.2
	c0-0.6-0.1-1.2-0.3-1.8c-0.2-0.6-0.5-1.1-0.9-1.5c-0.4-0.4-1-0.8-1.5-1c-0.7-0.3-1.5-0.4-2.2-0.4c-0.9,0-1.8,0.2-2.7,0.5
	c-0.8,0.3-1.5,0.7-2.1,1.3l1.2,1.5c0.4-0.4,0.9-0.7,1.5-1c0.6-0.3,1.2-0.4,1.9-0.4c0.7,0,1.5,0.2,2.1,0.6c0.6,0.5,0.9,1.2,0.8,2v0.3
	c-1,0-2.1,0-3,0.1c-0.9,0.1-1.8,0.3-2.6,0.5c-0.7,0.2-1.4,0.7-1.9,1.2c-0.5,0.6-0.8,1.3-0.7,2.1c0,0.6,0.1,1.2,0.4,1.7
	c0.3,0.4,0.6,0.8,1,1.1c0.4,0.3,0.9,0.5,1.4,0.6c0.5,0.1,1,0.2,1.5,0.2c0.8,0,1.6-0.2,2.3-0.5c0.7-0.3,1.2-0.9,1.6-1.5l0,0
	c0,0.6,0.1,1.1,0.2,1.7h2.1c-0.1-0.4-0.1-0.7-0.1-1.1C311.4,148.2,311.4,147.8,311.4,147.3L311.4,147.3z M309.2,144.7
	c0,0.9-0.3,1.8-0.9,2.5c-0.7,0.7-1.6,1-2.5,1c-0.3,0-0.6,0-0.9,0c-0.3-0.1-0.5-0.2-0.8-0.3c-0.2-0.1-0.4-0.3-0.6-0.6
	c-0.1-0.3-0.2-0.6-0.2-0.9c0-0.5,0.2-0.9,0.5-1.2c0.4-0.3,0.8-0.5,1.2-0.7c0.6-0.2,1.1-0.3,1.7-0.3c0.6,0,1.2,0,1.8,0h0.6v0.6
	L309.2,144.7z M314.9,149.7h2.3V138h-2.4L314.9,149.7z M316,132.1c-0.4,0-0.8,0.1-1.1,0.4c-0.3,0.3-0.4,0.7-0.4,1.1
	c0,0.4,0.1,0.8,0.4,1.1c0.3,0.3,0.7,0.4,1.1,0.4c0.4,0,0.8-0.1,1.1-0.4c0.3-0.3,0.5-0.7,0.5-1.1c0-0.4-0.2-0.8-0.5-1.1
	C316.8,132.2,316.4,132.1,316,132.1L316,132.1z M330.3,139c-0.4-0.4-0.8-0.8-1.4-1c-0.6-0.3-1.3-0.4-2-0.4c-1.2,0-2.4,0.5-3.2,1.4
	c-0.2,0.3-0.5,0.6-0.6,0.9l0,0c0-0.2,0-0.6,0-0.9c0-0.4,0-0.7,0-1h-2.2c0,0.4,0,0.8,0,1.3c0,0.5,0,0.9,0,1.2v9.3h2.3v-6.2
	c0-1,0.3-2,0.9-2.8c0.6-0.7,1.4-1.1,2.3-1.1c0.5,0,0.9,0.1,1.4,0.3c0.3,0.2,0.6,0.5,0.8,0.8c0.2,0.4,0.4,0.7,0.4,1.1
	c0.1,0.5,0.1,0.9,0.1,1.4v6.6h2.1v-7.3c0-0.6-0.1-1.3-0.3-1.9C330.9,140,330.6,139.5,330.3,139L330.3,139z M352,132h-13.8v2.1h5.6
	v15.5h2.5v-15.5h5.7L352,132L352,132z M360.8,139.2c-0.5-0.5-1.1-1-1.8-1.2c-1.5-0.6-3.2-0.6-4.8,0c-0.7,0.3-1.4,0.7-2,1.3
	c-0.6,0.6-1,1.3-1.3,2.1c-0.3,0.8-0.5,1.7-0.5,2.5c0,0.9,0.2,1.7,0.5,2.5c0.6,1.5,1.8,2.7,3.3,3.2c1.7,0.6,3.6,0.6,5.3-0.1
	c0.9-0.4,1.6-1.1,2.2-1.9l-1.6-1.3c-0.4,0.5-0.8,1-1.4,1.3c-0.6,0.4-1.4,0.5-2.1,0.5c-1,0-1.9-0.4-2.7-1c-0.3-0.3-0.6-0.7-0.8-1.1
	c-0.2-0.4-0.3-0.9-0.3-1.4h9.4c0-0.1,0-0.3,0-0.4v-0.4c0-0.9-0.1-1.7-0.4-2.6C361.7,140.5,361.3,139.8,360.8,139.2L360.8,139.2z
	 M352.9,142.7c0-0.5,0.1-0.9,0.4-1.3c0.2-0.4,0.5-0.8,0.8-1.1c0.3-0.3,0.7-0.5,1.1-0.7c0.4-0.2,0.9-0.3,1.4-0.3c0.5,0,1,0.1,1.4,0.3
	c0.4,0.2,0.7,0.4,1,0.7c0.3,0.3,0.5,0.7,0.6,1.1c0.1,0.4,0.2,0.9,0.2,1.3H352.9z M374.7,147.3v-5.2c0-0.6-0.1-1.2-0.3-1.8
	c-0.2-0.6-0.5-1.1-0.9-1.5c-0.4-0.4-1-0.8-1.5-1c-0.7-0.3-1.5-0.4-2.2-0.4c-0.9,0-1.8,0.2-2.7,0.5c-0.8,0.3-1.5,0.7-2.1,1.3l1.2,1.5
	c0.4-0.4,0.9-0.7,1.5-1c0.6-0.3,1.2-0.4,1.9-0.4c0.7,0,1.5,0.2,2.1,0.6c0.6,0.5,0.9,1.2,0.8,2v0.3c-1,0-2.1,0-3,0.1
	c-0.9,0.1-1.8,0.3-2.6,0.5c-0.7,0.2-1.4,0.7-1.9,1.2c-0.5,0.6-0.8,1.3-0.7,2.1c0,0.6,0.1,1.2,0.4,1.7c0.3,0.4,0.6,0.8,1,1.1
	c0.4,0.3,0.9,0.5,1.4,0.6c0.5,0.1,1,0.2,1.5,0.2c0.8,0,1.6-0.2,2.3-0.5c0.7-0.3,1.2-0.9,1.6-1.5l0,0c0,0.6,0.1,1.1,0.2,1.7h2.1
	c-0.1-0.4-0.1-0.7-0.1-1.1C374.7,148.2,374.7,147.8,374.7,147.3L374.7,147.3z M372.4,144.7c0,0.9-0.3,1.8-0.9,2.5
	c-0.7,0.7-1.6,1-2.5,1c-0.3,0-0.6,0-0.9,0c-0.3-0.1-0.5-0.2-0.8-0.3c-0.2-0.1-0.4-0.3-0.6-0.6c-0.1-0.3-0.2-0.6-0.2-0.9
	c0-0.5,0.2-0.9,0.5-1.2c0.4-0.3,0.8-0.5,1.2-0.7c0.6-0.2,1.1-0.3,1.7-0.3c0.6,0,1.2,0,1.8,0h0.6v0.6L372.4,144.7z M396,140.5
	c-0.2-0.6-0.4-1.1-0.8-1.5c-0.4-0.4-0.8-0.8-1.4-1c-0.6-0.3-1.3-0.4-2-0.4c-0.8,0-1.6,0.2-2.3,0.6c-0.7,0.4-1.3,1-1.7,1.8
	c-0.3-0.8-0.8-1.4-1.5-1.8c-0.6-0.4-1.4-0.5-2.1-0.5c-0.8,0-1.6,0.2-2.3,0.7c-0.6,0.4-1.1,0.9-1.4,1.6l0,0c0-0.2,0-0.6,0-0.9
	c0-0.4,0-0.7,0-1h-2.2c0,0.4,0,0.8,0,1.3c0,0.5,0,0.9,0,1.2v9.3h2.3v-6.2c-0.1-1,0.2-2,0.9-2.8c0.5-0.7,1.3-1,2.1-1.1
	c0.4,0,0.8,0.1,1.2,0.2c0.3,0.1,0.6,0.4,0.8,0.6c0.2,0.3,0.4,0.6,0.4,1c0.1,0.4,0.1,0.8,0.1,1.3v7h2.3v-6.4c0-0.5,0.1-0.9,0.2-1.4
	c0.1-0.4,0.3-0.8,0.5-1.2c0.2-0.4,0.6-0.7,0.9-0.9c0.4-0.2,0.9-0.3,1.4-0.3c0.4,0,0.9,0.1,1.3,0.3c0.3,0.2,0.6,0.5,0.8,0.8
	c0.2,0.4,0.4,0.7,0.4,1.1c0.1,0.5,0.1,0.9,0.1,1.4v6.6h2.3v-7.3C396.3,141.8,396.2,141.1,396,140.5L396,140.5z M169.1,114.3
	l-78-52.6c-3.3-2.2-7.6-2.2-10.9,0l-78,52.6c-3.1,2.1-4,6.4-1.9,9.5c0.5,0.7,1.1,1.4,1.9,1.9l78,52.6c3.3,2.2,7.6,2.2,10.9,0
	l78-52.7c3.1-2.1,4-6.4,1.9-9.5C170.5,115.4,169.9,114.8,169.1,114.3L169.1,114.3z M165.6,120.6l-78,52.6c-1.2,0.8-2.8,0.8-4,0
	l-78-52.6c-0.2-0.1-0.3-0.3-0.3-0.5c0-0.2,0.1-0.4,0.3-0.5l78-52.7c1.2-0.8,2.8-0.8,4,0l78,52.6c0.3,0.2,0.4,0.6,0.2,0.9
	C165.8,120.4,165.7,120.5,165.6,120.6L165.6,120.6z"/>
<path class="st1" d="M245.1,59.6c-3.2-1.8-6.8-2.7-10.4-2.7c-3.6,0-7.1,0.9-10.2,2.7c-3,1.8-5.5,4.3-7.3,7.3
	c-1.8,3.2-2.7,6.8-2.7,10.4v33.4c0,1,0.3,2,1.1,2.7c1.4,1.5,3.8,1.5,5.3,0.1c0.8-0.7,1.2-1.8,1.1-2.8v-18l2.1,1.6
	c5.4,4.4,12.8,5.4,19.2,2.6c10.4-4.6,11.6-15.8,11.6-19.6c0.1-3.6-0.9-7.2-2.6-10.4C250.6,63.9,248.1,61.4,245.1,59.6z M247.8,77.7
	c0,2.5-0.6,4.9-1.7,7.1c-1.1,2.1-2.7,3.8-4.7,5c-4.1,2.4-9.2,2.4-13.3,0c-2-1.2-3.6-2.9-4.7-5c-1.1-2.4-1.6-4.9-1.5-7.5
	c0-2.4,0.5-4.9,1.7-7c3.4-6.3,11.2-8.7,17.5-5.3c0.1,0.1,0.3,0.2,0.4,0.2c2,1.2,3.6,2.9,4.7,4.9c1.2,2.2,1.8,4.6,1.7,7L247.8,77.7z
	 M290.1,76.6c-4.9-2.6-10.8-2.9-16-0.9c-2.1,0.8-4,2-5.6,3.6v-18c0-2.1-1.8-3.8-3.9-3.7c-0.9,0-1.8,0.4-2.5,1
	c-0.7,0.7-1.1,1.7-1.1,2.7V111c0,2.1,1.8,3.8,3.9,3.7c1,0,1.9-0.4,2.6-1.1c0.7-0.7,1.1-1.7,1-2.7V90.4c0-1.7,0.5-3.4,1.4-4.8
	c1-1.5,2.4-2.6,3.9-3.4c1.7-0.8,3.7-1.3,5.6-1.2c5.9-0.5,11.2,3.9,11.7,9.8c0.1,0.7,0.1,1.4,0,2.1V111c-0.2,2.1,1.4,3.9,3.5,4
	c2.1,0.2,3.9-1.4,4-3.5c0-0.2,0-0.4,0-0.6V93.1c0.1-3.5-0.7-7-2.3-10.1C295,80.2,292.8,78,290.1,76.6L290.1,76.6z M488,78.7
	c-2.7-2.8-6.5-4.3-10.4-4.2c-2.5,0-5,0.5-7.3,1.5c-2.1,0.9-4,2.4-5.5,4.2c-1.2-1.8-2.9-3.3-4.9-4.3c-2.1-1-4.4-1.5-6.7-1.5
	c-2,0-3.9,0.3-5.7,1.1c-1.7,0.7-3.3,1.7-4.6,3c0-1-0.4-1.9-1.1-2.6c-0.7-0.7-1.7-1-2.6-1c-1,0-2,0.3-2.7,1c-0.7,0.7-1.1,1.7-1.1,2.7
	V111c0,2.1,1.8,3.8,3.9,3.7c1,0,1.9-0.4,2.6-1.1c0.7-0.7,1.1-1.7,1-2.7V90.4c0-2.5,0.9-4.9,2.7-6.7c1.6-1.7,3.9-2.7,6.2-2.6
	c2.2-0.1,4.4,0.7,6,2.3c1.6,1.9,2.4,4.3,2.2,6.8V111c0,2.1,1.8,3.8,3.9,3.7c1,0,1.9-0.4,2.6-1.1c0.7-0.7,1.1-1.7,1-2.7V90.4
	c-0.1-2.5,0.8-4.9,2.5-6.7c1.6-1.7,3.9-2.7,6.2-2.6c2.2-0.1,4.4,0.7,6,2.3c1.6,1.9,2.5,4.3,2.3,6.8V111c0,2.1,1.8,3.8,3.9,3.7
	c1,0,1.9-0.4,2.6-1.1c0.7-0.7,1.1-1.7,1-2.7V90.2c0.3-4.3-1.1-8.4-3.9-11.7L488,78.7z M420.7,77c-3.2-1.8-6.8-2.7-10.4-2.6
	c-3.6,0-7.2,0.8-10.4,2.6c-3,1.7-5.5,4.2-7.2,7.2c-3.4,6.6-3.4,14.4,0,21c1.7,3,4.2,5.5,7.2,7.2c6.5,3.5,14.4,3.5,20.9,0
	c3-1.7,5.5-4.2,7.2-7.2c3.4-6.6,3.4-14.4,0-21C426.2,81.2,423.7,78.7,420.7,77z M421.6,101.8c-1.1,2-2.6,3.7-4.6,4.9
	c-4.2,2.3-9.2,2.3-13.4,0c-2-1.2-3.6-2.8-4.7-4.9c-1.1-2.2-1.7-4.6-1.7-7.1c0-2.5,0.5-4.9,1.7-7.1c1.1-2,2.7-3.7,4.7-4.9
	c4.2-2.3,9.2-2.3,13.4,0c2,1.2,3.6,2.9,4.6,4.9c1.1,2.2,1.7,4.6,1.6,7.1C423.3,97.2,422.7,99.6,421.6,101.8L421.6,101.8z
	 M376.3,76.5c-4.9-2.5-10.7-2.9-15.9-0.9c-2.1,0.8-4,2-5.6,3.6v-0.8c0.1-1.9-1.4-3.6-3.3-3.7c-0.1,0-0.3,0-0.4,0c-1,0-2,0.3-2.7,1
	c-0.7,0.7-1.1,1.7-1.1,2.7V111c0,2.1,1.8,3.8,3.9,3.7c1,0,1.9-0.4,2.6-1.1c0.7-0.7,1.1-1.7,1-2.7V90.4c0-1.7,0.5-3.4,1.4-4.8
	c1-1.5,2.4-2.6,3.9-3.4c1.7-0.8,3.7-1.3,5.6-1.2c5.9-0.5,11.2,3.9,11.7,9.8c0.1,0.7,0.1,1.4,0,2.1V111c-0.2,2.1,1.4,3.9,3.5,4
	s3.9-1.4,4-3.5c0-0.2,0-0.4,0-0.6V93.1c0.1-3.5-0.7-7-2.3-10.1C381.2,80.2,379,78,376.3,76.5z M333.5,76.9c-3-1.7-6.3-2.6-9.7-2.5
	c-3.6-0.1-7.1,0.8-10.2,2.6c-3,1.7-5.4,4.2-7,7.2c-1.7,3.2-2.6,6.8-2.5,10.5c0,3.6,0.9,7.2,2.7,10.4c1.8,3.1,4.3,5.6,7.4,7.2
	c5.5,2.9,12,3.4,17.8,1.4c2.3-0.7,4.4-1.8,6.2-3.2c0.7-0.5,1.2-1.3,1.2-2.2c0-1-0.5-1.9-1.3-2.5c-0.6-0.5-1.4-0.8-2.2-0.7
	c-0.9,0-1.7,0.3-2.4,0.8c-1.2,0.9-2.5,1.6-3.9,2.1c-1.5,0.5-3,0.8-4.6,0.8c-3.4,0.1-6.7-1-9.4-3.1c-2.6-2.1-4.2-5.1-4.7-8.3h27.8
	c0.9,0,1.8-0.3,2.4-0.9c0.6-0.6,1-1.4,1-2.3c0.1-3.5-0.7-7-2.2-10.2C338.4,81,336.2,78.5,333.5,76.9z M310.8,91.4
	c0.4-3,1.9-5.8,4.2-7.8c2.4-2,5.5-3.1,8.7-2.9c2.9-0.1,5.7,0.9,7.8,2.9c2.1,2.1,3.4,4.9,3.7,7.8H310.8z M169.7,76.1l-78-52.5
	c-3.3-2.2-7.6-2.2-10.9,0l-78,52.5c-3.1,2.1-4,6.3-1.9,9.4C1.3,86.3,2,87,2.7,87.5l78,52.5c0.7,0.5,1.5,0.9,2.3,1.2v35.3
	c0,1.7,1.4,3.1,3.1,3.1c1.7,0,3.1-1.4,3.1-3.1v-35.3c0.8-0.3,1.6-0.7,2.3-1.2l74.8-50.3v30c0,1.7,1.4,3.1,3.1,3.1s3.1-1.4,3.1-3.1
	V81.9C172.7,79.6,171.6,77.4,169.7,76.1L169.7,76.1z M166.2,82.4l-78,52.4c-0.6,0.4-1.3,0.6-2,0.6l0,0c-0.7,0-1.4-0.2-2-0.6l0,0
	L6.2,82.3c-0.3-0.2-0.4-0.6-0.2-0.9c0-0.1,0.1-0.1,0.2-0.2l78-52.5c1.2-0.8,2.8-0.8,4,0l78,52.5c0.3,0.2,0.4,0.6,0.2,0.9
	C166.3,82.2,166.3,82.3,166.2,82.4L166.2,82.4z"/>
</svg>
